# xmcd
#
# Track frame offsets:
#	150
#	33398
#	64526
#	105379
#	145381
#	188141
#	228339
#	266735
#	306297
#
# Disc length: 4642 seconds
#
# Revision: 0
# Processed by: cddbd v1.5.2PL0 Copyright (c) Steve Scherf et al.
# Submitted via: EasyCDDAExtractor 16.0.9.1
#
DISCID=78122009
DTITLE=Agnieszka Tyszka - O czym marzy czarownica
DYEAR=2010
DGENRE=Audiobook
TTITLE0=Laurencja
TTITLE1=Laurencja placze
TTITLE2=Laurencja mowi
TTITLE3=Magiczny telefon zaufania
TTITLE4=Gdzie jest Laurencja?
TTITLE5=Zaproszenie
TTITLE6=Kwiaciarnia Laurencja
TTITLE7=Urodziny
TTITLE8=Laurencja czyni cuda
EXTD=
EXTT0=
EXTT1=
EXTT2=
EXTT3=
EXTT4=
EXTT5=
EXTT6=
EXTT7=
EXTT8=
PLAYORDER=
